<?xml version="1.0" standalone="no"?>
<!DOCTYPE svg PUBLIC "-//W3C//DTD SVG 20010904//EN"
 "http://www.w3.org/TR/2001/REC-SVG-20010904/DTD/svg10.dtd">
<svg version="1.0" xmlns="http://www.w3.org/2000/svg"
 width="300.000000pt" height="300.000000pt" viewBox="0 0 300.000000 300.000000"
 preserveAspectRatio="xMidYMid meet">
<metadata>
Created by potrace 1.10, written by Peter Selinger 2001-2011
</metadata>
<g transform="translate(0.000000,300.000000) scale(0.100000,-0.100000)"
fill="#000000" stroke="none">
<path d="M1265 2944 c-381 -59 -739 -276 -969 -587 -181 -245 -295 -568 -284
-807 l3 -75 13 90 c36 249 73 384 147 540 186 387 552 681 969 780 240 57 447
57 721 1 110 -22 330 -122 460 -207 159 -105 292 -240 402 -404 129 -195 196
-377 228 -622 23 -173 33 -201 34 -93 2 250 -107 555 -285 797 -233 316 -589
529 -978 587 -128 19 -336 19 -461 0z"/>
<path d="M700 2362 c-48 -39 -77 -254 -49 -366 10 -42 9 -45 -35 -113 -86
-134 -116 -277 -96 -461 30 -271 149 -460 353 -560 83 -40 215 -82 265 -82 12
0 22 -2 22 -4 0 -2 -11 -29 -25 -60 -14 -31 -25 -63 -25 -71 0 -22 -36 -36
-109 -46 -121 -15 -196 19 -268 120 -65 93 -103 129 -165 161 -80 39 -144 41
-178 5 -23 -24 -23 -26 -7 -60 9 -19 39 -51 66 -70 63 -45 91 -83 141 -188 45
-94 102 -156 175 -188 57 -25 185 -42 263 -35 l63 5 -3 -137 c-3 -135 -3 -137
-27 -140 -57 -8 -309 113 -442 213 -104 77 -256 235 -325 335 -129 187 -197
354 -248 610 -2 8 -7 50 -11 92 -11 124 -23 148 -24 47 -2 -177 57 -401 154
-586 75 -142 145 -241 254 -355 150 -158 319 -274 515 -352 108 -44 147 -46
175 -10 19 24 21 40 21 173 l0 146 -153 0 c-145 0 -154 1 -207 27 -76 38 -110
77 -169 194 -38 75 -63 112 -97 140 -25 22 -61 54 -81 73 -33 32 -34 36 -17
48 27 20 83 16 139 -11 70 -32 110 -68 160 -145 44 -67 71 -93 135 -127 43
-23 183 -24 244 -2 36 13 41 20 62 82 12 36 34 82 49 101 14 19 24 35 22 35
-17 0 -181 34 -221 45 -140 41 -281 143 -345 249 -98 163 -135 435 -85 615 19
68 63 155 101 200 l29 34 -19 71 c-20 79 -18 145 9 249 21 83 28 90 84 84 59
-7 201 -65 285 -117 l67 -40 101 22 c146 31 408 31 553 0 l102 -22 73 44 c93
56 215 105 279 113 46 5 49 4 64 -26 9 -17 24 -75 33 -128 15 -94 15 -101 -3
-174 l-20 -77 29 -33 c38 -45 82 -132 101 -200 47 -168 19 -414 -67 -584 -74
-148 -262 -268 -477 -305 -36 -6 -75 -13 -88 -16 l-23 -5 25 -32 c58 -76 60
-89 66 -398 5 -264 7 -289 24 -308 27 -30 70 -27 172 15 196 78 365 194 515
352 109 114 179 212 254 355 97 185 156 413 154 593 -1 99 -11 69 -34 -103
-35 -270 -114 -466 -281 -693 -68 -94 -203 -228 -303 -303 -125 -93 -368 -211
-425 -205 l-31 3 -6 135 c-4 74 -7 196 -8 270 -1 131 -12 185 -55 280 -5 13 9
19 80 33 133 25 280 100 367 188 126 126 187 302 187 542 0 122 -3 147 -26
215 -14 42 -46 107 -71 144 l-45 69 12 51 c28 116 -10 341 -62 369 -48 26
-190 -18 -344 -106 l-73 -41 -88 19 c-125 28 -440 28 -563 1 l-85 -19 -100 52
c-109 57 -236 103 -283 103 -16 0 -40 -8 -52 -18z"/>
</g>
</svg>
