<?xml version="1.0" standalone="no"?>
<!DOCTYPE svg PUBLIC "-//W3C//DTD SVG 20010904//EN"
 "http://www.w3.org/TR/2001/REC-SVG-20010904/DTD/svg10.dtd">
<svg version="1.0" xmlns="http://www.w3.org/2000/svg"
 width="880.000000pt" height="889.000000pt" viewBox="0 0 880.000000 889.000000"
 preserveAspectRatio="xMidYMid meet">
<metadata>
Created by potrace 1.16, written by Peter Selinger 2001-2019
</metadata>
<g transform="translate(0.000000,889.000000) scale(0.100000,-0.100000)"
fill="#000000" stroke="none">
<path d="M4245 8464 c-22 -2 -92 -9 -155 -14 -546 -51 -1103 -226 -1580 -498
-445 -254 -966 -691 -1261 -1059 -478 -597 -762 -1299 -819 -2027 -97 -1241
425 -2426 1420 -3221 113 -91 366 -261 504 -340 402 -229 872 -395 1336 -469
252 -41 379 -50 675 -50 280 0 431 12 660 50 673 111 1310 395 1845 820 170
135 466 430 596 594 107 134 325 454 416 610 259 443 420 921 485 1438 24 190
24 643 0 832 -105 828 -455 1559 -1027 2144 -642 657 -1457 1058 -2375 1167
-161 19 -612 34 -720 23z m685 -149 c838 -102 1562 -431 2174 -990 403 -368
743 -873 934 -1385 340 -914 287 -1919 -149 -2792 -121 -241 -254 -448 -433
-673 -110 -137 -395 -420 -541 -537 -700 -558 -1530 -848 -2430 -848 -617 0
-1201 137 -1745 410 -1053 528 -1807 1539 -1980 2655 -6 39 -13 81 -16 95 -5
22 -4 23 9 10 8 -8 78 -118 157 -245 78 -126 146 -234 151 -239 4 -5 32 1 64
14 31 12 57 21 59 19 1 -2 121 -264 266 -581 146 -318 270 -578 276 -578 7 0
124 38 261 85 207 71 302 112 371 160 1 1 -14 63 -33 138 -19 74 -35 140 -35
146 0 6 28 -10 63 -35 123 -92 232 -123 369 -104 114 16 224 53 297 100 35 23
65 39 67 37 2 -2 7 -38 10 -81 4 -42 11 -79 16 -83 6 -3 104 5 219 18 l210 23
82 46 82 46 5 140 5 141 410 -196 c226 -108 424 -203 442 -210 31 -13 34 -12
75 24 l43 36 5 191 5 191 65 13 c35 8 93 25 128 39 36 14 66 25 67 23 2 -2 -6
-41 -16 -87 -11 -46 -19 -84 -17 -86 2 -1 135 -21 295 -44 l293 -42 29 20 c16
12 33 21 38 21 4 0 23 -23 41 -51 l33 -50 33 20 c18 12 38 21 43 21 5 0 15
-35 21 -77 7 -42 13 -78 15 -79 1 -1 136 -25 300 -53 l299 -51 69 37 70 38 -6
40 c-4 22 -9 48 -11 58 -5 15 2 17 58 17 35 0 73 3 86 6 21 6 22 4 22 -73 l0
-80 182 -8 c99 -4 187 -9 195 -12 8 -3 29 -35 47 -72 19 -36 43 -74 54 -84 11
-10 103 -45 203 -77 l183 -59 31 23 c28 21 52 85 260 672 333 945 333 944 326
949 -15 9 -564 124 -571 120 -5 -3 -10 0 -12 6 -3 8 -14 6 -37 -6 -36 -18 -51
-10 -51 27 0 10 -10 20 -22 23 -13 3 -166 34 -340 70 l-317 64 -61 -31 -60
-31 0 -164 c0 -122 -3 -164 -12 -167 -7 -2 -51 -10 -97 -19 -46 -9 -117 -32
-158 -51 -51 -25 -75 -32 -78 -23 -2 7 -25 136 -50 287 -25 151 -48 285 -50
298 -5 20 -11 22 -75 22 l-69 0 -23 41 c-22 40 -125 119 -154 119 -24 0 -15
14 32 49 52 40 153 185 182 264 38 101 55 211 50 326 -4 91 -10 122 -45 221
-22 63 -43 122 -47 131 -6 13 5 19 56 31 85 21 574 216 723 288 290 140 585
388 585 492 0 31 -33 61 -85 79 -66 23 -439 16 -589 -10 -271 -48 -561 -175
-864 -377 l-137 -92 -40 34 c-103 88 -212 150 -381 217 -124 50 -214 67 -352
67 l-117 0 -114 218 c-255 488 -422 719 -636 880 -134 102 -291 159 -353 130
-65 -31 -78 -133 -38 -289 42 -159 134 -362 234 -516 33 -52 -3 -16 -100 100
-157 187 -638 689 -657 685 -15 -3 -16 -68 -19 -724 l-2 -720 250 -193 c138
-106 252 -197 255 -201 2 -4 -61 -103 -140 -221 -80 -118 -145 -219 -145 -226
0 -6 79 -88 176 -181 l176 -169 -45 -26 c-136 -80 -190 -233 -126 -358 11 -23
19 -42 17 -44 -2 -1 -142 -46 -313 -100 -278 -88 -416 -140 -428 -162 -4 -8
12 -335 16 -340 2 -1 26 4 55 11 52 14 52 14 58 -10 12 -46 1 -54 -79 -54 -88
0 -168 -19 -262 -64 l-70 -33 0 121 c-1 103 -4 129 -24 176 -94 224 -321 361
-628 377 -355 19 -860 -156 -1138 -394 -30 -26 -41 -30 -47 -20 -14 26 -25
379 -17 547 16 337 65 607 169 921 177 538 451 986 854 1397 648 660 1482
1048 2436 1131 153 14 590 5 750 -14z m-1399 -845 c164 -173 809 -936 809
-958 0 -4 -21 -18 -47 -31 -170 -83 -285 -202 -365 -379 -52 -118 -72 -205
-72 -327 -1 -166 35 -280 127 -400 l45 -60 -31 -3 c-18 -1 -66 -9 -107 -18
l-74 -14 -76 72 c-198 191 -260 253 -260 260 0 3 66 104 146 223 80 119 144
222 141 228 -3 7 -122 103 -265 212 l-261 200 0 650 -1 650 53 -55 c28 -30
135 -143 238 -250z m795 8 c79 -99 148 -207 246 -381 94 -169 218 -411 218
-425 0 -5 -14 -13 -31 -18 -43 -12 -59 -38 -37 -60 13 -13 22 -14 49 -5 68 21
215 32 310 21 108 -12 179 -35 317 -100 152 -72 218 -115 300 -194 61 -59 76
-68 90 -59 10 6 16 22 15 36 -1 21 17 37 135 115 159 105 385 224 523 276 113
42 278 86 321 86 l30 0 -4 -112 c-5 -125 -16 -163 -84 -304 l-44 -91 -268
-105 c-307 -122 -364 -138 -391 -114 -22 20 -35 20 -51 1 -10 -12 -6 -30 24
-100 20 -46 50 -126 67 -177 55 -165 40 -334 -47 -528 -14 -32 -35 -66 -45
-76 -17 -15 -20 -15 -49 10 -40 34 -69 41 -155 41 -99 -1 -168 -27 -227 -86
-26 -26 -48 -55 -48 -64 0 -13 -18 -15 -117 -15 -107 -1 -181 -7 -298 -25
l-40 -6 -89 123 c-49 68 -93 127 -97 132 -4 5 -42 -12 -84 -38 -41 -25 -79
-46 -84 -46 -5 0 -39 14 -76 31 -86 39 -252 77 -374 85 -76 6 -98 11 -119 29
l-25 22 26 7 c17 4 36 22 54 54 25 42 28 56 28 137 -1 110 -27 178 -88 230
-40 34 -112 65 -153 65 -13 0 -25 3 -27 8 -9 14 34 158 68 231 80 167 173 258
355 347 52 25 102 49 110 54 8 4 15 18 15 31 0 20 -5 24 -32 24 -18 0 -39 7
-46 15 -18 19 -187 267 -285 417 l-73 112 10 59 c14 89 28 132 58 184 32 54
152 208 162 208 4 0 30 -28 57 -62z m53 -2258 c132 -27 246 -70 245 -92 -1 -9
-93 -118 -205 -242 l-204 -225 -97 0 -98 -1 -112 95 c-62 52 -115 95 -118 95
-3 0 -14 -16 -25 -35 l-20 -35 -32 25 c-144 113 -117 296 57 385 39 20 130 44
200 54 78 10 308 -3 409 -24z m526 -221 c65 -81 75 -99 54 -99 -6 0 -101 -45
-211 -101 l-201 -101 -21 21 -20 21 79 83 c193 199 250 257 252 257 1 0 32
-36 68 -81z m736 -34 c159 -28 275 -74 333 -131 l28 -29 -123 -5 c-119 -5
-127 -6 -196 -42 l-73 -38 -175 0 c-168 0 -178 -1 -226 -25 -53 -27 -54 -29
-64 -87 -5 -35 -9 -38 -39 -38 -18 0 -55 12 -82 26 -58 31 -149 64 -177 64
-20 0 -57 26 -57 40 0 4 77 45 170 91 94 46 170 88 170 94 0 5 -9 21 -20 35
-26 34 -25 37 13 46 118 26 368 25 518 -1z m469 -297 c0 -7 9 -65 20 -128 12
-63 34 -191 50 -284 l29 -169 -40 -46 c-53 -59 -76 -105 -100 -198 -24 -95
-24 -160 -1 -244 33 -118 86 -185 223 -277 30 -20 48 -40 52 -58 l5 -26 -72 6
c-137 12 -246 29 -260 40 -8 7 -27 101 -50 261 -46 304 -45 301 -61 283 -6 -7
-32 -68 -56 -135 -24 -68 -46 -123 -49 -123 -7 1 -42 57 -133 213 -52 91 -83
134 -87 125 -4 -7 -17 -103 -29 -213 -13 -110 -23 -201 -25 -202 -1 -1 -27 1
-57 6 -30 5 -95 12 -145 16 -51 4 -97 11 -103 14 -9 6 85 545 185 1059 4 22 7
22 153 22 l149 0 16 -47 c8 -27 29 -102 46 -168 37 -144 39 -149 46 -142 3 3
19 88 35 188 16 101 32 196 35 212 l6 27 109 0 c81 0 109 -3 109 -12z m-2584
-215 c4 -106 10 -193 14 -193 3 0 57 69 119 154 62 85 131 175 154 200 l42 45
130 -118 c71 -65 130 -122 132 -127 1 -5 -82 -103 -187 -218 -104 -115 -187
-213 -185 -216 2 -4 86 -40 185 -80 169 -68 182 -75 200 -109 28 -57 93 -124
146 -153 55 -30 151 -61 237 -78 l57 -11 0 -130 c0 -71 -2 -129 -5 -129 -5 0
-223 101 -390 180 -71 34 -152 72 -180 85 -27 13 -131 62 -230 109 l-180 85
-30 -30 -30 -29 -5 -222 -5 -222 -75 -12 c-127 -21 -117 -27 -125 72 -7 81 -6
88 23 152 17 37 41 108 53 157 39 162 14 277 -87 400 l-48 60 -17 200 c-9 110
-17 201 -18 202 0 2 -24 -6 -52 -17 -28 -11 -55 -18 -60 -14 -8 5 -3 92 6 102
8 10 391 109 397 104 3 -4 10 -94 14 -199z m-1406 142 c146 -39 241 -109 292
-213 32 -64 33 -71 32 -182 0 -106 -3 -122 -33 -197 -59 -150 -138 -241 -309
-356 -54 -37 -61 -45 -57 -67 4 -14 42 -144 86 -288 44 -145 78 -270 75 -277
-2 -7 -20 -16 -38 -20 -18 -4 -37 -11 -43 -15 -5 -4 -51 -21 -102 -38 -68 -22
-94 -27 -101 -19 -5 7 -32 62 -60 122 -102 224 -492 1058 -496 1062 -2 3 -32
-10 -66 -27 -52 -26 -65 -29 -75 -18 -22 23 -175 280 -175 293 0 15 84 72 177
118 103 52 264 106 383 127 136 25 409 22 510 -5z m2695 -70 c80 -17 195 -70
243 -111 l33 -29 -62 -70 c-34 -38 -122 -133 -196 -210 -73 -76 -133 -143
-133 -147 0 -4 15 -8 33 -8 72 0 106 13 178 68 65 49 74 53 93 42 35 -22 176
-143 176 -151 0 -4 -23 -32 -51 -63 -95 -104 -277 -170 -474 -170 -289 -2
-457 140 -482 408 -9 100 15 167 86 236 197 192 350 249 556 205z m2320 -46
c105 -23 195 -47 201 -55 6 -7 44 -148 84 -313 41 -165 78 -297 82 -293 4 4
30 99 58 212 54 221 90 340 100 340 11 0 323 -69 326 -72 2 -3 -16 -56 -288
-823 -204 -575 -192 -545 -216 -545 -11 0 -62 15 -113 34 l-94 34 -10 390 c-5
215 -12 393 -15 396 -3 2 -18 -66 -34 -152 -16 -86 -41 -220 -56 -297 l-26
-140 -45 3 c-53 4 -190 30 -197 37 -4 4 8 155 25 305 l6 55 -42 -43 c-54 -55
-199 -127 -301 -148 -131 -28 -244 -1 -320 75 -106 107 -117 279 -30 450 36
71 74 108 178 170 107 64 167 77 284 63 107 -13 152 -35 217 -109 28 -31 51
-50 51 -42 0 7 7 79 15 159 21 216 22 207 -25 221 -43 13 -45 20 -34 92 4 20
12 37 18 37 6 0 97 -18 201 -41z m-4166 -410 c117 -20 240 -98 281 -178 78
-156 30 -353 -124 -499 -46 -43 -99 -82 -142 -103 -67 -33 -72 -34 -194 -34
-117 0 -129 2 -182 28 -68 33 -136 97 -163 152 -30 61 -28 225 4 320 31 92 61
136 135 193 167 130 225 148 385 121z"/>
<path d="M4352 6095 c-91 -41 -132 -99 -132 -185 0 -118 90 -200 221 -200 221
0 308 240 132 364 -35 24 -54 30 -115 33 -51 2 -83 -1 -106 -12z m217 -62 c12
-10 24 -35 28 -55 5 -32 1 -41 -25 -68 -39 -39 -74 -39 -113 -1 -37 38 -39 82
-4 116 29 30 83 33 114 8z"/>
<path d="M5472 5717 c-89 -34 -142 -110 -142 -205 0 -51 5 -67 33 -108 79
-118 247 -133 347 -31 94 96 72 254 -45 322 -53 31 -142 42 -193 22z m165 -82
c31 -36 29 -71 -6 -106 -66 -66 -185 -14 -166 72 15 69 124 90 172 34z"/>
<path d="M4547 5553 c-12 -12 -7 -22 29 -63 57 -63 95 -82 190 -91 100 -10
105 -13 185 -84 66 -59 129 -85 204 -85 44 0 82 20 72 37 -4 6 -35 11 -69 11
-81 0 -128 20 -195 83 -65 61 -105 79 -180 79 -71 0 -131 27 -176 81 -33 38
-47 46 -60 32z"/>
<path d="M1950 4243 c-40 -7 -130 -33 -130 -38 0 -15 154 -455 159 -455 3 1
40 24 81 53 101 70 152 144 158 226 2 32 -1 75 -7 94 -30 89 -140 140 -261
120z"/>
<path d="M4556 4355 c-109 -39 -156 -122 -137 -241 7 -50 46 -129 74 -152 10
-9 46 23 176 158 94 98 159 174 155 181 -3 6 -34 24 -68 40 -69 33 -135 37
-200 14z"/>
<path d="M6485 4061 c-23 -10 -53 -33 -68 -50 -24 -28 -27 -41 -27 -101 0
-106 32 -161 115 -195 44 -19 156 -23 196 -7 44 17 101 74 121 120 17 37 18
50 8 95 -15 74 -26 89 -39 54 -6 -16 -11 -32 -11 -37 0 -26 -37 -80 -61 -90
-46 -20 -133 8 -163 52 -24 34 -21 103 6 128 12 11 27 20 33 20 6 0 20 7 31
15 17 13 14 14 -41 14 -37 1 -75 -6 -100 -18z"/>
<path d="M2775 3966 c-81 -36 -126 -148 -94 -233 28 -76 135 -143 230 -143 44
0 64 6 101 29 90 57 108 116 74 235 -22 75 -36 80 -36 13 0 -68 -18 -92 -80
-108 -59 -16 -109 6 -133 57 -33 68 -14 131 43 151 l35 12 -55 0 c-30 0 -68
-6 -85 -13z"/>
</g>
</svg>
