<?xml version="1.0" standalone="no"?>
<!DOCTYPE svg PUBLIC "-//W3C//DTD SVG 20010904//EN"
 "http://www.w3.org/TR/2001/REC-SVG-20010904/DTD/svg10.dtd">
<svg version="1.0" xmlns="http://www.w3.org/2000/svg"
 width="920.000000pt" height="800.000000pt" viewBox="0 0 920.000000 800.000000"
 preserveAspectRatio="xMidYMid meet">
<metadata>
Created by potrace 1.16, written by Peter Selinger 2001-2019
</metadata>
<g transform="translate(0.000000,800.000000) scale(0.100000,-0.100000)"
fill="#000000" stroke="none">
<path d="M4681 4828 l-200 -232 36 -44 c19 -24 34 -44 32 -45 -2 -2 -20 -10
-39 -18 -19 -9 -56 -32 -82 -52 l-47 -36 -173 154 c-95 85 -175 155 -178 155
-3 0 -30 -50 -60 -111 -30 -61 -58 -113 -62 -115 -4 -3 -5 45 -1 106 3 63 2
110 -3 110 -12 0 -534 -167 -540 -173 -2 -2 -1 -68 2 -146 l7 -143 34 7 c19 3
40 8 47 11 10 4 15 -14 20 -66 4 -40 5 -74 3 -76 -2 -3 -30 2 -63 11 -107 28
-232 11 -331 -45 -29 -17 -54 -30 -55 -30 -2 0 -3 49 -3 108 0 103 -2 111 -34
176 -61 119 -196 223 -342 263 -49 13 -102 17 -219 17 -140 -1 -167 -4 -272
-32 -64 -16 -161 -49 -215 -72 -87 -37 -245 -124 -297 -163 -18 -13 -13 -25
114 -240 l134 -226 49 25 c27 14 51 24 53 21 2 -2 103 -226 225 -498 121 -271
222 -496 225 -498 5 -5 48 7 247 72 l159 51 -6 31 c-3 16 -34 141 -69 276
l-65 246 49 42 49 42 0 -59 c0 -196 130 -349 325 -383 119 -20 269 22 371 106
l41 34 7 -52 c3 -29 6 -69 6 -90 l0 -38 43 6 c23 3 110 16 192 29 l150 22 3
177 2 177 400 -200 c220 -110 402 -200 405 -200 2 0 6 87 7 192 l3 193 48 7
c67 9 182 45 239 74 27 13 48 21 48 17 0 -5 -7 -50 -15 -102 -9 -52 -14 -95
-13 -96 3 -3 367 -62 418 -68 11 -2 17 16 25 70 5 39 12 74 15 76 3 3 30 -42
60 -99 l54 -105 35 68 35 68 7 -45 c3 -25 10 -75 13 -112 4 -38 12 -68 17 -68
5 0 111 -18 234 -40 123 -22 230 -40 236 -40 11 0 8 52 -7 130 l-6 27 74 6
c40 3 98 15 128 26 30 12 57 21 58 21 4 0 -3 -63 -14 -141 l-5 -36 165 -23
166 -23 0 -68 0 -68 118 -37 c64 -20 142 -45 173 -54 l56 -17 223 673 c123
371 221 676 219 679 -7 6 -453 115 -457 111 -1 -2 -12 -41 -23 -87 -11 -46
-21 -85 -23 -87 -2 -1 -12 40 -22 94 -15 77 -22 98 -39 105 -14 6 -514 119
-528 119 -1 0 -1 -68 1 -150 2 -107 7 -152 15 -155 7 -2 24 -6 40 -9 22 -5 27
-12 27 -35 l0 -29 -47 18 c-113 42 -241 33 -356 -25 -57 -28 -67 -30 -71 -16
-3 9 -22 125 -42 259 l-38 242 -182 0 -183 0 -3 -27 -3 -28 -192 -3 c-172 -2
-192 -4 -197 -20 -3 -9 -13 -68 -22 -129 -10 -62 -21 -113 -24 -113 -3 0 -23
21 -44 46 -72 86 -188 146 -310 162 l-59 7 161 85 c89 47 162 88 162 93 0 11
-212 327 -221 327 -4 0 -97 -104 -208 -232z m259 4 c29 -40 51 -75 48 -77 -2
-2 -77 -40 -167 -85 -237 -117 -245 -104 -70 106 67 80 125 141 129 137 4 -4
31 -41 60 -81z m1024 -520 l38 -249 -36 -55 c-139 -208 -102 -460 84 -576 52
-33 59 -41 60 -69 0 -30 -2 -32 -27 -27 -16 3 -77 13 -138 22 l-110 17 -35
240 -36 240 -49 -127 c-28 -71 -52 -128 -55 -128 -3 0 -36 69 -74 153 -38 83
-72 155 -76 160 -3 4 -19 -78 -35 -183 -16 -104 -32 -190 -35 -190 -11 0 -234
40 -246 44 -8 3 -6 36 7 112 l18 108 56 56 55 55 -40 40 -39 40 43 255 43 255
131 3 130 3 10 -48 c6 -26 21 -106 33 -177 l23 -130 33 180 c17 98 32 189 32
202 1 21 4 22 99 22 l98 0 38 -248z m-2160 141 c4 -54 10 -129 14 -166 l7 -68
118 166 c65 91 121 165 125 164 4 0 60 -50 124 -112 l117 -112 -164 -174 c-91
-96 -165 -177 -165 -180 0 -3 68 -33 151 -66 140 -55 153 -62 180 -101 64 -94
173 -164 293 -188 l61 -13 3 -111 c2 -73 -1 -112 -8 -112 -5 0 -186 88 -400
195 -214 107 -392 195 -395 195 -3 0 -5 -94 -5 -208 l0 -209 -105 -15 c-58 -8
-105 -14 -106 -14 0 1 -4 39 -9 86 -7 78 -6 89 15 135 71 156 57 332 -36 447
-29 36 -31 45 -44 200 -8 90 -15 171 -15 180 0 14 -5 16 -22 9 -13 -4 -35 -11
-50 -15 -28 -6 -28 -6 -28 42 l0 48 153 46 c83 25 159 47 169 47 14 1 17 -14
22 -96z m-1184 41 c112 -25 227 -111 278 -209 23 -43 27 -62 27 -140 0 -83 -3
-96 -36 -165 -61 -126 -142 -220 -259 -300 -19 -13 -36 -24 -37 -25 -1 0 29
-119 67 -265 38 -145 68 -265 67 -266 -4 -3 -222 -72 -223 -71 -1 1 -102 227
-224 502 -123 275 -226 504 -230 508 -4 5 -31 -3 -60 -18 -29 -15 -56 -23 -59
-18 -4 4 -43 68 -86 141 -63 108 -76 136 -64 143 8 5 48 26 89 48 266 139 524
186 750 135z m2330 -81 c36 -17 82 -47 104 -67 l38 -36 -53 -59 c-30 -33 -106
-114 -169 -182 l-115 -122 52 6 c60 7 116 33 162 76 18 17 35 31 38 31 3 0 43
-35 90 -77 l85 -78 -48 -42 c-103 -91 -276 -156 -414 -156 -134 0 -246 50
-316 141 -48 63 -67 136 -62 236 3 68 10 91 38 144 76 143 230 225 415 219 77
-2 100 -7 155 -34z m1984 -63 c3 -8 28 -127 56 -265 28 -137 54 -257 57 -265
3 -8 32 95 64 229 33 135 61 247 64 249 9 10 275 -52 272 -63 -3 -5 -89 -268
-193 -583 l-188 -574 -29 6 c-15 3 -58 15 -96 26 l-68 21 -6 172 c-4 95 -7
248 -7 341 0 93 -2 167 -4 165 -3 -2 -21 -96 -41 -209 -19 -113 -40 -228 -46
-256 l-10 -50 -105 15 -105 15 7 77 c6 74 9 80 50 125 155 166 179 401 57 561
l-35 46 6 92 7 91 -38 10 c-21 5 -38 15 -37 22 1 6 2 29 3 50 l1 39 180 -36
c131 -26 181 -40 184 -51z m-426 -246 c68 -35 116 -94 138 -171 46 -157 -59
-354 -234 -440 -50 -25 -68 -28 -152 -28 -113 0 -154 17 -218 90 -130 148 -77
384 117 518 106 73 242 85 349 31z m-3061 -72 c163 -84 213 -266 124 -447 -90
-182 -294 -282 -471 -229 -73 22 -159 107 -185 183 -25 77 -17 187 19 263 52
109 152 198 271 241 68 24 184 19 242 -11z"/>
<path d="M2525 4216 c-5 -2 -29 -9 -53 -17 -24 -7 -41 -17 -39 -23 2 -6 28
-92 57 -191 30 -99 55 -181 56 -183 12 -17 138 98 165 150 43 85 17 197 -56
239 -29 17 -109 32 -130 25z m91 -95 c35 -21 46 -55 34 -108 -9 -38 -49 -88
-61 -76 -7 8 -59 181 -59 196 0 14 55 7 86 -12z"/>
<path d="M4650 4294 c-45 -20 -68 -41 -91 -86 -36 -70 -18 -180 38 -230 18
-17 23 -12 142 123 78 90 121 146 117 155 -9 22 -86 54 -131 53 -22 0 -56 -7
-75 -15z"/>
<path d="M6300 4061 c-85 -17 -132 -68 -138 -151 -3 -45 0 -61 20 -89 33 -49
69 -72 121 -78 73 -9 114 4 157 47 43 43 57 88 45 148 l-8 37 -9 -33 c-23 -83
-164 -98 -204 -21 -27 53 -14 97 39 129 34 21 32 22 -23 11z"/>
<path d="M3241 3968 c-79 -22 -121 -76 -121 -155 0 -89 62 -153 154 -161 124
-10 216 87 190 200 l-7 33 -14 -33 c-25 -62 -102 -88 -163 -57 -58 30 -69 104
-22 147 15 14 34 28 42 31 27 10 -22 6 -59 -5z"/>
</g>
</svg>
